<?xml version="1.0" encoding="utf-8"?>
<!-- Generator: Adobe Illustrator 19.0.0, SVG Export Plug-In . SVG Version: 6.00 Build 0)  -->
<svg version="1.1" id="logo_x5F_full" xmlns="http://www.w3.org/2000/svg" xmlns:xlink="http://www.w3.org/1999/xlink" x="0px"
	 y="0px" viewBox="0 0 500 500" style="enable-background:new 0 0 500 500;" xml:space="preserve">
<style type="text/css">
	.st0{fill:#FFFFFF;}
	.st1{fill:#188180;}
	.st2{fill:#99999A;}
	.st3{fill:#2BBEC3;}
	.st4{fill:#0F8A8A;}
	.st5{fill:url(#XMLID_2_);}
	.st6{fill:url(#XMLID_3_);}
	.st7{fill:url(#XMLID_4_);}
	.st8{fill:url(#XMLID_5_);}
	.st9{fill:url(#XMLID_6_);}
	.st10{fill:url(#XMLID_7_);}
</style>
<g id="white_x5F_logo">
	<g id="XMLID_23_">
		<path id="XMLID_57_" class="st0" d="M332.7,312.7l-222.5,1.5C47,277.7,25.3,196.9,61.8,133.8s117.3-84.8,180.5-48.4l-1.5,2.6
			C179,52.4,100.1,73.5,64.4,135.3S49.9,276,111.7,311.6l219.5-1.5l-8.3-14.2l-202.9,1.4c-53.9-31.1-72.3-100-41.2-153.8
			s100-72.3,153.8-41.2l-1.5,2.6C178.6,74.6,111.6,92.6,81.3,145C51.1,197.4,69,264.5,121.4,294.7l199.9-1.4l-8.9-15.2H131.6
			c-43.1-24.9-57.8-80-33-123s80-57.8,123-33l30-52C179.9,28.6,88.1,53.2,46.7,125s-16.9,163.6,54.9,205.1h241.2L332.7,312.7z"/>
		<path id="XMLID_56_" class="st0" d="M456.8,125c-41.5-71.8-133.3-96.4-205.1-54.9l-120.1,208h20.1L261.2,85.4
			c63.2-36.5,144-14.8,180.5,48.4s14.8,144-48.4,180.5l-1.5-2.6c61.7-35.7,82.9-114.6,47.3-176.4S324.4,52.4,262.7,88l-108,190.1
			h16.4L271,102.3c53.9-31.1,122.7-12.6,153.8,41.2s12.6,122.7-41.2,153.8l-1.5-2.6c52.4-30.3,70.4-97.3,40.1-149.7
			c-30.3-52.4-97.3-70.4-149.7-40.1l-98.4,173.2h17.6l90.1-156c43.1-24.9,98.2-10.1,123,33c24.9,43.1,10.1,98.2-33,123l30,52
			C473.7,288.6,498.3,196.8,456.8,125z"/>
		<polygon id="XMLID_55_" class="st1" points="251.7,69.2 251.6,69.5 251.8,69.4 		"/>
		<g id="XMLID_29_">
			<polygon id="XMLID_30_" class="st0" points="251.8,69.4 251.7,69.2 251.6,69.5 			"/>
			<path id="XMLID_31_" class="st0" d="M281.8,121.4l-10,17.5l112,190.9c0,73-59.1,132.1-132.1,132.1s-132.1-59.1-132.1-132.1h3
				c0,71.3,57.8,129.1,129.1,129.1s129.1-57.8,129.1-129.1L270.4,141.4l-8.2,14.3l102.1,174.1c0,62.2-50.4,112.6-112.6,112.6
				s-112.6-50.4-112.6-112.6h3c0,60.5,49.1,109.6,109.6,109.6s109.6-49.1,109.6-109.6L260.7,158.3l-8.8,15.3l89.9,155.6
				c0,49.7-40.3,90.1-90.1,90.1s-90.1-40.3-90.1-90.1h-60c0,82.9,67.2,150.1,150.1,150.1s150.1-67.2,150.1-150.1L281.8,121.4z"/>
		</g>
		<g id="XMLID_25_">
			<polygon id="XMLID_26_" class="st2" points="251.8,69.4 251.7,69.2 251.6,69.5 			"/>
			<g id="XMLID_27_">
				<polygon id="XMLID_33_" class="st2" points="281.8,121.4 271.8,138.8 278.3,149.9 288.4,132.7 				"/>
				<polygon id="XMLID_37_" class="st2" points="270.4,141.4 262.2,155.7 268.6,166.6 276.8,152.5 				"/>
				<polygon id="XMLID_38_" class="st2" points="260.7,158.3 251.9,173.6 258.2,184.5 267.1,169.2 				"/>
			</g>
		</g>
		<g id="XMLID_28_">
			<polygon id="XMLID_32_" class="st2" points="331.1,310.1 322.8,295.9 308.4,296 316.3,310.2 			"/>
			<polygon id="XMLID_34_" class="st2" points="342.8,330.1 332.7,312.7 317.8,312.8 327.5,330.1 			"/>
			<polygon id="XMLID_35_" class="st2" points="321.3,293.3 312.4,278.1 298.3,278.1 306.9,293.4 			"/>
		</g>
		<g id="XMLID_36_">
			<polygon id="XMLID_39_" class="st2" points="154.7,278.1 171.1,278.1 177.6,266.7 161.2,266.7 			"/>
			<polygon id="XMLID_40_" class="st2" points="131.6,278.1 151.7,278.1 158.2,266.7 138.2,266.7 			"/>
			<polygon id="XMLID_41_" class="st2" points="174.1,278.1 191.7,278.1 198.3,266.7 180.5,266.7 			"/>
		</g>
	</g>
</g>
<g id="coloured_x5F_logo">
	<g id="XMLID_24_">
		<path id="XMLID_77_" class="st3" d="M332.7,312.7l-222.5,1.5C47,277.7,25.3,196.9,61.8,133.8s117.3-84.8,180.5-48.4l-1.5,2.6
			C179,52.4,100.1,73.5,64.4,135.3S49.9,276,111.7,311.6l219.5-1.5l-8.3-14.2l-202.9,1.4c-53.9-31.1-72.3-100-41.2-153.8
			s100-72.3,153.8-41.2l-1.5,2.6C178.6,74.6,111.6,92.6,81.3,145S69,264.5,121.4,294.7l199.9-1.4l-8.9-15.2H131.6
			c-43.1-24.9-57.8-80-33-123s80-57.8,123-33l30-52C179.9,28.6,88.1,53.2,46.7,125s-16.9,163.6,54.9,205.1h241.2L332.7,312.7z"/>
		<path id="XMLID_76_" class="st3" d="M456.8,125c-41.5-71.8-133.3-96.4-205.1-54.9l-120.1,208h20.1L261.2,85.4
			c63.2-36.5,144-14.8,180.5,48.4s14.8,144-48.4,180.5l-1.5-2.6c61.7-35.7,82.9-114.6,47.3-176.4S324.4,52.4,262.7,88l-108,190.1
			h16.4L271,102.3c53.9-31.1,122.7-12.6,153.8,41.2s12.6,122.7-41.2,153.8l-1.5-2.6c52.4-30.3,70.4-97.3,40.1-149.7
			c-30.3-52.4-97.3-70.4-149.7-40.1l-98.4,173.2h17.6l90.1-156c43.1-24.9,98.2-10.1,123,33c24.9,43.1,10.1,98.2-33,123l30,52
			C473.7,288.6,498.3,196.8,456.8,125z"/>
		<polygon id="XMLID_69_" class="st1" points="251.7,69.2 251.6,69.5 251.8,69.4 		"/>
		<g id="XMLID_65_">
			<polygon id="XMLID_68_" class="st3" points="251.8,69.4 251.7,69.2 251.6,69.5 			"/>
			<path id="XMLID_66_" class="st3" d="M281.8,121.4l-10,17.5l112,190.9c0,73-59.1,132.1-132.1,132.1s-132.1-59.1-132.1-132.1h3
				c0,71.3,57.8,129.1,129.1,129.1s129.1-57.8,129.1-129.1L270.4,141.4l-8.2,14.3l102.1,174.1c0,62.2-50.4,112.6-112.6,112.6
				s-112.6-50.4-112.6-112.6h3c0,60.5,49.1,109.6,109.6,109.6s109.6-49.1,109.6-109.6L260.7,158.3l-8.8,15.3l89.9,155.6
				c0,49.7-40.3,90.1-90.1,90.1s-90.1-40.3-90.1-90.1h-60c0,82.9,67.2,150.1,150.1,150.1s150.1-67.2,150.1-150.1L281.8,121.4z"/>
		</g>
		<g id="XMLID_50_">
			<polygon id="XMLID_64_" class="st4" points="251.8,69.4 251.7,69.2 251.6,69.5 			"/>
			<g id="XMLID_51_">
				<polygon id="XMLID_54_" class="st4" points="281.8,121.4 271.8,138.8 278.3,149.9 288.4,132.7 				"/>
				<polygon id="XMLID_53_" class="st4" points="270.4,141.4 262.2,155.7 268.6,166.6 276.8,152.5 				"/>
				<polygon id="XMLID_52_" class="st4" points="260.7,158.3 251.9,173.6 258.2,184.5 267.1,169.2 				"/>
			</g>
		</g>
		<g id="XMLID_46_">
			<linearGradient id="XMLID_2_" gradientUnits="userSpaceOnUse" x1="315.5695" y1="307.2332" x2="323.6663" y2="299.1364">
				<stop  offset="0" style="stop-color:#0F8A8A"/>
				<stop  offset="0.5627" style="stop-color:#0F8A8A"/>
				<stop  offset="0.9964" style="stop-color:#0F8A8A"/>
			</linearGradient>
			<polygon id="XMLID_49_" class="st5" points="331.1,310.1 322.8,295.9 308.4,296 316.3,310.2 			"/>
			<linearGradient id="XMLID_3_" gradientUnits="userSpaceOnUse" x1="330.0422" y1="321.7058" x2="338.1389" y2="313.6091">
				<stop  offset="0" style="stop-color:#0F8A8A"/>
				<stop  offset="0.5627" style="stop-color:#0F8A8A"/>
				<stop  offset="0.9964" style="stop-color:#0F8A8A"/>
			</linearGradient>
			<polygon id="XMLID_48_" class="st6" points="342.8,330.1 332.7,312.7 317.8,312.8 327.5,330.1 			"/>
			<linearGradient id="XMLID_4_" gradientUnits="userSpaceOnUse" x1="301.9225" y1="293.5861" x2="310.0192" y2="285.4893">
				<stop  offset="0" style="stop-color:#0F8A8A"/>
				<stop  offset="0.5627" style="stop-color:#0F8A8A"/>
				<stop  offset="0.9964" style="stop-color:#0F8A8A"/>
			</linearGradient>
			<polygon id="XMLID_47_" class="st7" points="321.3,293.3 312.4,278.1 298.3,278.1 306.9,293.4 			"/>
		</g>
		<g id="XMLID_42_">
			<linearGradient id="XMLID_5_" gradientUnits="userSpaceOnUse" x1="154.713" y1="272.3891" x2="177.5677" y2="272.3891">
				<stop  offset="6.460374e-007" style="stop-color:#0F8A8A"/>
				<stop  offset="0.9964" style="stop-color:#0F8A8A"/>
			</linearGradient>
			<polygon id="XMLID_45_" class="st8" points="154.7,278.1 171.1,278.1 177.6,266.7 161.2,266.7 			"/>
			<linearGradient id="XMLID_6_" gradientUnits="userSpaceOnUse" x1="131.642" y1="272.3891" x2="158.1977" y2="272.3891">
				<stop  offset="6.460374e-007" style="stop-color:#0F8A8A"/>
				<stop  offset="0.9964" style="stop-color:#0F8A8A"/>
			</linearGradient>
			<polygon id="XMLID_44_" class="st9" points="131.6,278.1 151.7,278.1 158.2,266.7 138.2,266.7 			"/>
			<linearGradient id="XMLID_7_" gradientUnits="userSpaceOnUse" x1="174.0835" y1="272.3891" x2="198.2585" y2="272.3891">
				<stop  offset="6.460374e-007" style="stop-color:#0F8A8A"/>
				<stop  offset="0.9964" style="stop-color:#0F8A8A"/>
			</linearGradient>
			<polygon id="XMLID_43_" class="st10" points="174.1,278.1 191.7,278.1 198.3,266.7 180.5,266.7 			"/>
		</g>
	</g>
</g>
</svg>
